<svg width="91" height="81" viewBox="0 0 91 81" fill="none" xmlns="http://www.w3.org/2000/svg">
<path d="M77.5452 10.5563L66.6736 16.4052L14.1759 44.6411C13.9984 43.2114 13.909 41.771 13.9085 40.329C13.9157 34.5757 15.3461 28.9242 18.0582 23.9343C20.7702 18.9444 24.6698 14.7893 29.3706 11.8805C34.0713 8.97163 39.4102 7.41007 44.8584 7.35045C50.3065 7.29083 55.6749 8.73522 60.4318 11.5406L66.6545 8.19258L67.5827 7.69241C61.8823 3.32347 55.149 0.703874 48.1268 0.123153C41.1047 -0.457568 34.0672 1.0232 27.7922 4.40179C21.5172 7.78038 16.249 12.9252 12.5699 19.2677C8.89074 25.6102 6.94396 32.9034 6.94469 40.3411C6.94469 41.3684 6.98161 42.3916 7.05547 43.4108C7.1589 44.8541 6.85577 46.2974 6.18421 47.5592C5.51265 48.821 4.50267 49.8449 3.28135 50.502L0 52.2688V60.5096L9.66068 55.3102L12.7892 53.6241L15.8719 51.9663L71.2155 22.1895L77.4344 18.8456L90.2886 11.9278V3.69098L77.5452 10.5563Z" fill="white"/>
<path d="M90.2886 20.1726L19.0158 58.4927L12.7969 61.8447L0 68.7302V76.963L12.709 70.1259L23.5806 64.277L76.1318 36.0008C76.3095 37.44 76.3988 38.8898 76.3992 40.3411C76.3958 46.101 74.9658 51.7599 72.2511 56.7559C69.5364 61.7518 65.6314 65.9111 60.9239 68.8209C56.2163 71.7306 50.8699 73.2896 45.4154 73.3431C39.9608 73.3965 34.5879 71.9426 29.8301 69.1255L29.4481 69.3393L22.702 72.9697C28.4011 77.3387 35.1331 79.9591 42.1542 80.5412C49.1752 81.1233 56.212 79.6445 62.487 76.2682C68.762 72.892 74.031 67.7496 77.7117 61.4093C81.3924 55.0691 83.3416 47.7778 83.3439 40.3411C83.3439 39.3044 83.3057 38.2678 83.2331 37.2432C83.1298 35.8004 83.4326 34.3576 84.1034 33.0959C84.7742 31.8343 85.7831 30.8101 87.0034 30.152L90.2886 28.3852V20.1726Z" fill="white"/>
</svg>
